<?xml version="1.0" encoding="UTF-8" ?>
<!DOCTYPE svg PUBLIC "-//W3C//DTD SVG 1.1//EN" "http://www.w3.org/Graphics/SVG/1.1/DTD/svg11.dtd">
<svg width="377pt" height="169pt" viewBox="0 0 377 169" version="1.1" xmlns="http://www.w3.org/2000/svg">
<g id="#cfa542ed">
<path fill="#cfa542" opacity="0.93" d=" M 185.47 0.59 C 188.53 5.42 191.97 10.22 192.99 15.99 C 196.01 24.90 192.43 34.14 187.61 41.65 C 189.39 30.72 192.03 18.94 186.60 8.65 C 185.07 12.35 183.76 16.14 182.66 19.99 C 183.66 19.33 184.67 18.66 185.67 17.99 C 184.06 22.67 183.18 27.58 183.12 32.53 C 180.12 30.00 177.13 27.22 175.37 23.67 C 173.85 19.24 174.32 14.41 173.68 9.83 C 175.41 16.98 177.55 24.17 181.37 30.51 C 179.61 20.29 180.24 9.72 185.47 0.59 Z" />
<path fill="#cfa542" opacity="0.93" d=" M 205.93 12.87 C 201.74 18.85 198.42 25.35 195.80 32.16 C 196.48 24.59 198.90 16.91 205.93 12.87 Z" />
<path fill="#cfa542" opacity="0.93" d=" M 208.02 18.09 C 212.14 15.67 216.91 14.64 221.32 12.89 C 218.32 26.76 208.94 41.27 193.90 43.35 C 203.29 37.07 212.33 29.37 216.26 18.43 C 208.09 20.36 204.07 28.43 197.66 33.09 C 200.24 27.56 203.14 21.95 208.02 18.09 Z" />
<path fill="#cfa542" opacity="0.93" d=" M 151.90 16.77 C 166.78 18.70 180.09 30.08 182.28 45.19 C 176.11 35.80 169.68 25.59 158.45 21.85 C 160.10 25.82 162.19 29.59 164.33 33.31 C 164.57 32.28 164.81 31.24 165.05 30.21 C 166.11 34.63 169.23 37.87 172.12 41.14 C 166.90 38.19 161.37 35.13 157.94 30.04 C 155.41 25.87 153.58 21.33 151.90 16.77 Z" />
<path fill="#cfa542" opacity="0.93" d=" M 188.19 25.67 C 189.84 25.73 189.45 28.46 187.96 28.49 C 186.31 28.41 186.76 25.76 188.19 25.67 Z" />
<path fill="#cfa542" opacity="0.93" d=" M 150.66 32.21 C 156.74 35.79 162.97 39.08 169.25 42.28 C 161.65 42.22 155.80 37.19 150.66 32.21 Z" />
<path fill="#cfa542" opacity="0.93" d=" M 202.23 32.90 C 204.25 32.00 204.88 34.88 202.77 35.10 C 200.75 36.00 200.12 33.11 202.23 32.90 Z" />
<path fill="#cfa542" opacity="0.93" d=" M 214.33 36.37 C 218.76 34.85 223.58 35.36 228.17 34.73 C 221.05 36.57 213.82 38.45 207.54 42.40 C 217.88 40.99 228.88 40.19 237.92 46.52 C 231.82 50.31 224.95 52.74 217.83 53.69 C 210.66 54.89 203.82 51.73 197.65 48.49 C 208.52 49.47 220.34 52.43 230.60 47.60 C 226.44 46.18 222.22 44.92 218.00 43.69 C 218.67 44.69 219.34 45.68 220.02 46.68 C 215.34 45.06 210.42 44.18 205.47 44.12 C 208.00 41.12 210.77 38.14 214.33 36.37 Z" />
<path fill="#cfa542" opacity="0.93" d=" M 139.97 52.58 C 149.56 47.20 161.36 42.50 172.25 46.82 C 175.07 47.77 177.72 49.15 180.35 50.51 C 169.40 49.43 157.65 46.85 147.18 51.29 C 151.01 52.81 154.95 53.97 158.87 55.25 C 158.63 54.28 158.39 53.32 158.15 52.35 C 162.18 53.86 166.38 54.85 170.50 56.07 C 160.10 59.51 149.39 57.80 139.97 52.58 Z" />
<path fill="#cfa542" opacity="0.93" d=" M 195.65 53.80 C 201.99 63.07 208.29 73.53 219.47 77.47 C 218.17 73.24 216.06 69.34 213.58 65.70 C 213.43 66.50 213.13 68.08 212.98 68.87 C 210.81 65.07 208.39 61.43 205.97 57.79 C 211.12 60.83 216.61 63.91 220.06 68.96 C 222.58 73.11 224.41 77.64 226.10 82.18 C 211.00 80.62 198.02 68.92 195.65 53.80 Z" />
<path fill="#cfa542" opacity="0.93" d=" M 156.63 85.96 C 159.84 72.20 169.07 57.72 184.10 55.65 C 174.92 62.12 165.39 69.39 161.71 80.51 C 169.94 78.71 173.91 70.54 180.33 65.92 C 177.58 71.86 174.37 77.86 168.81 81.65 C 165.00 83.71 160.76 84.76 156.63 85.96 Z" />
<path fill="#cfa542" opacity="0.93" d=" M 149.78 64.31 C 157.05 62.28 164.24 59.94 171.33 57.31 C 165.58 63.16 157.61 64.43 149.78 64.31 Z" />
<path fill="#cfa542" opacity="0.93" d=" M 208.75 56.74 C 216.36 56.82 222.45 61.71 227.30 67.07 C 221.19 63.49 215.28 59.54 208.75 56.74 Z" />
<path fill="#cfa542" opacity="0.93" d=" M 184.23 76.96 C 183.31 69.78 186.80 63.28 190.40 57.39 C 188.58 68.30 185.98 80.07 191.40 90.35 C 192.93 86.65 194.23 82.86 195.34 79.01 C 194.33 79.67 193.32 80.34 192.33 81.01 C 193.90 76.39 194.79 71.56 195.03 66.69 C 196.51 72.62 198.81 78.73 197.84 84.92 C 196.46 89.56 194.51 94.00 192.57 98.43 C 188.36 92.00 183.86 85.02 184.23 76.96 Z" />
<path fill="#cfa542" opacity="0.93" d=" M 175.14 63.90 C 177.02 63.61 176.69 66.41 175.03 66.27 C 173.13 66.53 173.48 63.80 175.14 63.90 Z" />
<path fill="#cfa542" opacity="0.93" d=" M 182.45 67.14 C 181.35 74.57 178.93 82.10 172.11 86.25 C 176.07 80.17 179.41 73.73 182.45 67.14 Z" />
<path fill="#cfa542" opacity="0.93" d=" M 188.87 74.22 C 189.71 71.96 190.70 69.76 191.88 67.66 C 191.01 69.91 190.00 72.09 188.87 74.22 Z" />
<path fill="#cfa542" opacity="0.93" d=" M 197.24 67.68 C 203.26 73.35 204.54 81.28 204.32 89.17 C 202.50 81.84 199.79 74.78 197.24 67.68 Z" />
<path fill="#cfa542" opacity="0.93" d=" M 52.35 114.08 C 55.21 114.54 57.97 115.46 60.54 116.78 C 57.69 116.24 54.93 115.39 52.35 114.08 Z" />
<path fill="#cfa542" opacity="0.93" d=" M 88.69 113.18 C 92.58 114.25 95.12 117.37 97.25 120.58 C 93.26 119.51 90.41 117.04 88.69 113.18 Z" />
<path fill="#cfa542" opacity="0.93" d=" M 120.62 114.12 C 121.80 114.09 122.99 114.05 124.18 114.02 C 119.99 125.35 121.14 137.22 122.14 148.99 C 121.36 148.99 119.82 148.99 119.05 148.99 C 118.99 143.73 118.92 138.47 118.86 133.22 C 117.75 133.11 116.64 133.00 115.53 132.90 C 117.53 126.73 119.33 120.48 120.62 114.12 Z" />
<path fill="#cfa542" opacity="0.93" d=" M 131.06 113.87 C 132.24 114.06 133.41 114.25 134.59 114.45 C 134.83 119.71 135.06 124.97 135.28 130.24 C 138.98 125.69 141.10 118.69 148.04 118.50 C 142.22 127.16 133.37 134.90 134.33 146.45 C 137.07 144.22 144.52 148.60 145.59 143.77 C 146.56 141.45 147.28 139.04 148.10 136.67 C 146.58 140.02 150.32 146.95 145.34 148.38 C 140.80 149.04 136.10 148.30 131.51 147.89 C 131.27 145.26 131.04 142.63 130.81 140.01 C 129.16 140.28 127.50 140.55 125.85 140.81 C 127.51 139.46 129.17 138.09 130.85 136.76 C 130.94 129.13 130.99 121.50 131.06 113.87 Z" />
<path fill="#cfa542" opacity="0.93" d=" M 157.34 114.13 C 158.58 114.08 159.81 114.04 161.05 113.99 C 160.00 118.52 158.61 123.00 158.07 127.62 C 158.31 134.75 158.83 141.87 159.09 149.00 C 157.86 148.99 156.63 148.98 155.41 148.97 C 154.89 143.18 153.81 137.46 153.31 131.68 C 154.03 125.71 156.00 119.98 157.34 114.13 Z" />
<path fill="#cfa542" opacity="0.93" d=" M 171.31 114.18 C 172.48 114.10 173.65 114.03 174.83 113.96 C 174.51 115.91 174.20 117.87 173.91 119.84 C 176.52 119.99 181.74 120.30 184.35 120.45 C 180.63 120.71 176.92 120.97 173.20 121.23 C 172.50 123.05 171.80 124.86 171.09 126.68 C 176.22 127.02 181.40 127.08 186.49 127.93 C 181.11 128.50 175.73 129.04 170.36 129.55 C 170.21 131.02 170.08 132.50 169.95 133.98 C 174.71 134.21 179.47 134.61 184.13 135.70 C 184.03 137.07 183.94 138.45 183.86 139.83 C 181.53 141.33 179.20 142.84 176.88 144.36 C 178.97 146.11 181.11 147.80 183.19 149.57 C 175.67 148.96 170.35 143.26 163.93 140.05 C 168.55 139.72 174.62 143.41 178.61 139.67 C 179.71 138.77 180.75 137.79 181.79 136.83 C 176.56 136.28 171.34 135.88 166.14 135.20 C 166.23 133.75 166.42 130.83 166.52 129.38 C 164.49 128.91 162.48 128.43 160.47 127.92 C 162.33 127.63 166.04 127.05 167.89 126.76 C 168.11 125.07 168.34 123.38 168.58 121.69 C 167.13 121.35 164.22 120.68 162.77 120.34 C 164.51 120.19 167.98 119.90 169.72 119.75 C 170.25 117.89 170.78 116.04 171.31 114.18 Z" />
<path fill="#cfa542" opacity="0.93" d=" M 193.09 114.05 C 194.33 114.03 195.57 114.02 196.81 114.01 C 197.58 124.33 199.38 134.74 196.95 145.02 C 196.88 148.11 192.79 148.71 191.01 150.23 C 192.02 145.33 192.61 140.35 193.29 135.40 C 192.05 135.46 190.81 135.53 189.57 135.60 C 193.88 129.17 190.84 121.13 193.09 114.05 Z" />
<path fill="#cfa542" opacity="0.93" d=" M 199.64 116.67 C 207.83 116.15 216.18 116.27 224.14 113.97 C 223.95 114.56 223.58 115.73 223.39 116.32 C 219.09 117.83 212.33 117.24 213.58 124.13 C 216.66 122.01 219.71 119.81 223.21 118.42 C 221.72 120.37 220.13 122.24 218.44 124.02 C 220.69 124.34 223.11 124.76 225.40 125.16 C 222.55 125.43 216.86 125.95 214.01 126.21 C 214.19 128.51 214.39 130.81 214.60 133.12 C 213.71 133.00 212.83 132.88 211.95 132.77 C 213.21 124.80 205.55 126.18 200.63 125.01 C 201.92 124.58 203.22 124.15 204.52 123.73 C 203.30 121.95 202.13 120.14 201.00 118.31 C 204.71 119.91 207.94 122.36 211.33 124.52 C 213.48 115.99 204.46 118.31 199.64 116.67 Z" />
<path fill="#cfa542" opacity="0.93" d=" M 228.80 119.99 C 234.43 118.72 239.93 116.89 244.80 113.73 C 244.18 115.37 243.57 117.02 242.96 118.67 C 249.50 119.03 256.12 118.84 262.61 119.92 C 255.75 120.03 248.90 120.03 242.05 120.04 C 241.28 121.55 240.50 123.06 239.74 124.57 C 246.31 125.59 253.89 123.53 259.88 127.14 C 260.23 134.32 259.95 141.50 259.79 148.69 C 255.75 148.73 251.72 148.78 247.70 148.79 C 250.38 148.07 253.20 147.41 255.91 146.71 C 255.94 142.47 255.99 138.23 256.02 133.99 C 250.36 133.99 244.70 134.00 239.05 134.00 C 239.03 137.75 238.97 145.25 238.94 148.99 C 237.64 148.99 236.34 148.99 235.04 149.00 C 235.04 145.33 235.03 138.01 235.03 134.34 C 232.72 135.04 230.39 135.70 228.05 136.31 C 231.61 131.22 235.18 126.08 237.64 120.35 C 234.69 120.21 231.75 120.09 228.80 119.99 M 239.00 127.00 C 239.00 128.50 239.00 131.50 239.00 133.00 C 244.66 133.00 250.33 133.01 256.00 133.00 C 256.00 131.50 256.00 128.50 256.00 127.00 C 250.33 127.00 244.66 126.99 239.00 127.00 Z" />
<path fill="#cfa542" opacity="0.93" d=" M 267.01 114.52 C 270.09 116.23 276.17 112.97 278.08 116.98 C 280.28 122.16 277.03 127.54 277.73 132.84 C 278.02 138.18 281.74 146.71 272.84 146.94 C 273.98 142.42 274.59 137.78 275.34 133.18 C 273.97 132.33 272.59 131.47 271.22 130.64 C 271.09 137.13 271.02 143.63 270.94 150.13 C 269.73 149.94 268.52 149.74 267.31 149.55 C 266.96 137.87 266.94 126.19 267.01 114.52 M 270.97 117.00 C 271.04 121.47 271.11 125.93 271.21 130.40 C 272.46 129.58 273.71 128.76 274.97 127.93 C 274.98 125.20 275.01 119.74 275.03 117.00 C 273.67 117.00 272.32 117.00 270.97 117.00 Z" />
<path fill="#cfa542" opacity="0.93" d=" M 280.01 115.69 C 286.28 115.43 292.59 115.10 298.85 115.84 C 299.05 121.54 299.24 127.26 299.54 132.97 C 293.91 133.04 288.29 133.10 282.67 133.23 C 285.95 135.28 289.19 137.45 292.67 139.18 C 295.24 137.65 297.60 135.77 300.29 134.42 C 298.73 137.09 296.91 139.59 294.76 141.81 C 297.31 143.96 299.91 146.08 302.38 148.34 C 294.25 147.44 289.02 140.54 282.99 135.86 C 283.11 138.63 283.34 144.17 283.46 146.94 C 286.48 146.54 289.48 145.98 292.50 145.52 C 289.08 147.79 283.94 151.62 280.23 147.82 C 279.59 137.12 279.95 126.40 280.01 115.69 M 283.00 116.91 C 283.00 118.69 283.00 122.23 283.00 124.00 C 287.35 124.00 291.70 123.99 296.07 123.99 C 295.94 122.31 295.69 118.95 295.56 117.27 C 291.37 117.12 287.18 117.02 283.00 116.91 M 282.93 125.01 C 283.06 126.69 283.31 130.05 283.44 131.73 C 287.62 131.88 291.80 131.97 296.00 132.09 C 296.00 130.31 296.00 126.77 296.00 125.00 C 291.64 125.00 287.28 125.00 282.93 125.01 Z" />
<path fill="#cfa542" opacity="0.93" d=" M 304.21 132.86 C 309.36 127.15 311.36 118.51 318.54 114.75 C 314.67 121.20 313.61 132.02 304.21 132.86 Z" />
<path fill="#cfa542" opacity="0.93" d=" M 323.97 115.23 C 332.19 117.67 334.70 126.99 339.93 132.82 C 330.84 132.06 328.14 121.90 323.97 115.23 Z" />
<path fill="#cfa542" opacity="0.93" d=" M 344.44 116.93 C 354.92 116.06 365.79 114.89 376.12 117.54 C 375.81 126.89 376.90 136.40 375.61 145.68 C 371.99 150.99 364.22 148.18 358.71 149.01 C 363.16 147.76 367.64 146.58 372.07 145.23 C 372.03 136.21 372.00 127.20 371.99 118.18 C 362.80 118.05 353.57 118.05 344.44 116.93 Z" />
<path fill="#cfa542" opacity="0.93" d=" M 3.01 116.85 C 13.49 116.88 23.99 116.96 34.43 118.02 C 29.96 118.44 25.48 118.83 21.00 119.20 C 21.00 123.41 21.00 127.63 21.01 131.84 C 24.80 132.02 28.59 132.22 32.38 132.43 C 29.53 132.61 23.84 132.97 20.99 133.15 C 20.99 137.36 21.00 141.58 21.01 145.80 C 25.81 145.98 30.62 146.09 35.41 146.41 C 23.98 147.04 12.52 146.99 1.07 147.20 C 2.13 146.55 4.24 145.25 5.29 144.61 C 6.26 138.09 5.69 131.48 5.47 124.93 C 6.62 124.97 7.77 125.00 8.92 125.04 C 8.97 132.03 9.01 139.01 9.05 146.00 C 12.04 145.98 15.02 146.01 18.01 146.00 C 18.01 137.01 18.00 128.03 18.00 119.05 C 14.25 119.03 6.76 119.00 3.01 118.99 C 3.01 118.45 3.01 117.39 3.01 116.85 Z" />
<path fill="#cfa542" opacity="0.93" d=" M 42.27 118.05 C 52.32 117.94 62.38 117.97 72.42 118.48 C 63.09 118.91 53.74 119.03 44.40 119.29 C 44.22 122.52 44.07 125.77 43.90 129.01 C 46.68 129.00 52.23 128.98 55.01 128.97 C 55.00 127.76 54.98 126.56 54.97 125.36 C 51.84 125.10 48.73 124.79 45.62 124.44 C 49.58 123.46 53.54 122.32 57.17 120.42 C 61.19 121.90 65.53 122.61 69.27 124.77 C 72.22 127.82 71.87 132.14 70.81 135.94 C 66.88 135.98 62.94 136.04 59.00 136.09 C 59.02 136.67 59.06 137.82 59.08 138.39 C 63.13 138.87 67.18 139.51 71.13 140.54 C 71.10 142.42 71.03 146.19 71.00 148.07 C 62.84 147.99 54.69 148.03 46.55 147.78 C 46.14 144.85 45.77 141.95 45.34 139.04 C 47.75 138.99 52.56 138.90 54.97 138.85 C 54.97 138.27 54.96 137.10 54.95 136.52 C 51.73 136.09 48.51 135.71 45.31 135.11 C 48.52 134.61 51.75 134.19 54.98 133.74 C 54.99 132.50 55.00 131.26 55.01 130.02 C 52.32 130.02 46.94 130.01 44.25 130.00 C 43.99 135.53 44.43 141.15 43.62 146.65 C 42.22 148.02 40.46 148.92 38.79 149.90 C 39.81 140.04 40.01 130.11 40.19 120.21 C 40.89 119.49 41.58 118.78 42.27 118.05 M 59.01 124.89 C 59.01 126.26 59.00 127.64 58.99 129.01 C 61.72 128.99 64.46 128.97 67.19 128.96 C 66.97 127.74 66.75 126.53 66.53 125.32 C 64.03 125.16 61.52 125.02 59.01 124.89 M 59.00 129.99 C 59.00 131.33 59.00 132.67 59.00 134.00 C 61.67 134.00 64.34 134.00 67.00 134.01 C 67.00 132.67 67.00 131.33 67.00 130.00 C 64.33 130.00 61.66 130.00 59.00 129.99 M 47.94 141.22 C 48.34 151.53 60.93 145.30 67.00 147.22 C 67.00 145.65 67.00 142.53 67.00 140.97 C 60.64 141.01 54.29 141.08 47.94 141.22 Z" />
<path fill="#cfa542" opacity="0.93" d=" M 77.57 121.62 C 88.51 120.91 99.48 120.83 110.43 121.38 C 99.49 122.09 88.52 122.17 77.57 121.62 Z" />
<path fill="#cfa542" opacity="0.93" d=" M 344.56 123.67 C 352.83 123.21 361.15 122.89 369.44 123.33 C 361.15 123.79 352.85 124.11 344.56 123.67 Z" />
<path fill="#cfa542" opacity="0.93" d=" M 82.04 125.29 C 86.54 127.07 89.97 130.52 93.56 133.64 C 97.11 130.06 100.69 126.08 106.13 125.61 C 102.86 129.35 99.46 132.97 96.01 136.54 C 100.66 140.95 105.64 144.99 110.35 149.35 C 103.13 149.63 98.73 144.02 94.08 139.61 C 89.12 144.11 84.16 149.31 76.92 149.53 C 81.94 145.71 86.86 141.71 91.16 137.07 C 88.07 133.18 84.92 129.33 82.04 125.29 Z" />
<path fill="#cfa542" opacity="0.93" d=" M 200.19 134.36 C 201.64 130.42 205.21 127.71 208.98 126.16 C 207.84 128.85 206.59 131.48 205.25 134.07 C 208.86 134.09 216.09 134.13 219.70 134.14 C 218.23 131.59 216.91 128.96 215.82 126.23 C 219.63 128.54 222.76 131.75 226.09 134.68 C 224.86 134.84 223.63 135.00 222.40 135.16 C 222.65 139.84 222.87 144.52 223.07 149.20 C 216.02 148.95 208.95 148.98 201.93 148.19 C 201.36 143.59 200.23 139.00 200.19 134.36 M 204.98 135.98 L 205.02 140.97 C 206.52 140.99 209.52 141.01 211.02 141.02 L 210.98 136.03 C 209.48 136.01 206.48 135.99 204.98 135.98 M 214.56 134.71 L 213.94 141.04 C 215.75 140.86 219.35 140.52 221.15 140.35 C 219.23 138.17 217.10 136.15 214.56 134.71 M 204.98 141.98 L 205.02 146.97 C 206.52 146.99 209.52 147.01 211.02 147.02 L 210.98 142.03 C 209.48 142.01 206.48 141.99 204.98 141.98 M 213.98 141.98 L 214.02 146.97 C 215.52 146.99 218.52 147.01 220.02 147.02 L 219.98 142.03 C 218.48 142.01 215.48 141.99 213.98 141.98 Z" />
<path fill="#cfa542" opacity="0.93" d=" M 309.03 145.76 C 310.63 138.12 315.78 130.62 322.58 126.78 C 319.17 133.23 314.78 139.13 311.77 145.78 C 317.54 145.71 323.21 144.69 328.88 143.73 C 327.33 139.83 325.68 135.98 324.19 132.06 C 331.27 135.05 333.17 143.41 338.75 148.20 C 333.59 146.82 328.27 144.05 322.88 146.41 C 318.48 146.64 312.37 150.27 309.03 145.76 Z" />
<path fill="#cfa542" opacity="0.93" d=" M 345.99 129.97 C 352.57 130.00 359.15 130.04 365.74 130.11 C 366.44 130.83 367.15 131.55 367.86 132.26 C 367.91 134.99 367.99 140.44 368.03 143.17 C 360.69 142.94 353.33 142.97 346.03 142.08 C 346.01 138.04 346.00 134.01 345.99 129.97 M 348.48 130.92 C 348.71 133.40 349.17 138.38 349.40 140.86 C 354.04 142.75 359.23 141.82 364.09 142.42 C 363.97 139.62 363.73 134.03 363.61 131.23 C 358.57 131.04 353.51 131.00 348.48 130.92 Z" />
<path fill="#cfa542" opacity="0.93" d=" M 239.58 140.73 C 244.51 140.51 249.47 140.22 254.42 140.27 C 249.47 140.48 244.53 140.78 239.58 140.73 Z" />
<path fill="#cfa542" opacity="0.93" d=" M 114.27 162.10 C 116.00 162.08 116.00 165.92 114.27 165.90 C 113.19 165.03 113.19 162.96 114.27 162.10 Z" />
<path fill="#cfa542" opacity="0.93" d=" M 156.27 162.10 C 158.00 162.08 158.00 165.92 156.27 165.90 C 155.19 165.03 155.19 162.96 156.27 162.10 Z" />
<path fill="#cfa542" opacity="0.93" d=" M 160.27 162.10 C 162.00 162.08 162.00 165.92 160.27 165.90 C 159.19 165.03 159.19 162.96 160.27 162.10 Z" />
<path fill="#cfa542" opacity="0.93" d=" M 187.71 167.08 C 188.15 164.89 188.61 162.70 189.10 160.53 C 189.11 162.31 189.11 164.10 189.12 165.89 C 190.55 165.85 191.98 165.80 193.41 165.77 C 191.98 166.10 189.13 166.75 187.71 167.08 Z" />
<path fill="#cfa542" opacity="0.93" d=" M 249.27 162.10 C 251.00 162.08 251.00 165.92 249.27 165.90 C 248.18 165.03 248.18 162.96 249.27 162.10 Z" />
<path fill="#cfa542" opacity="0.93" d=" M 276.00 166.75 C 276.18 164.78 276.39 162.83 276.62 160.88 C 277.41 163.10 278.29 165.29 279.35 167.41 C 278.23 167.19 277.11 166.97 276.00 166.75 Z" />
<path fill="#cfa542" opacity="0.93" d=" M 75.80 166.87 C 76.86 165.00 77.90 163.12 79.08 161.33 C 79.15 163.25 79.19 165.17 79.34 167.09 C 78.16 167.02 76.98 166.94 75.80 166.87 Z" />
<path fill="#cfa542" opacity="0.93" d=" M 83.37 162.13 C 84.19 160.93 86.31 162.29 85.22 163.45 C 84.38 164.65 82.32 163.32 83.37 162.13 Z" />
<path fill="#cfa542" opacity="0.93" d=" M 91.52 161.93 C 91.00 163.29 90.44 164.64 89.84 165.97 C 90.63 166.33 91.42 166.69 92.21 167.06 C 90.50 166.86 88.79 166.65 87.08 166.43 C 88.45 164.83 89.95 163.34 91.52 161.93 Z" />
<path fill="#cfa542" opacity="0.93" d=" M 97.74 162.54 C 99.60 162.00 100.16 165.91 98.30 166.00 C 97.15 165.42 96.74 163.43 97.74 162.54 Z" />
<path fill="#cfa542" opacity="0.93" d=" M 100.43 164.18 C 101.91 163.22 103.40 162.27 104.92 161.37 C 105.39 163.19 105.85 165.02 106.27 166.86 C 104.90 166.99 103.53 167.12 102.16 167.25 C 103.16 166.09 104.15 164.92 105.11 163.72 C 103.55 163.86 101.99 164.02 100.43 164.18 Z" />
<path fill="#cfa542" opacity="0.93" d=" M 119.98 161.78 C 120.22 163.03 120.70 165.51 120.95 166.76 C 120.33 166.87 119.11 167.09 118.50 167.20 C 119.05 165.41 119.53 163.60 119.98 161.78 Z" />
<path fill="#cfa542" opacity="0.93" d=" M 124.37 162.13 C 125.19 160.93 127.31 162.29 126.22 163.45 C 125.38 164.65 123.32 163.32 124.37 162.13 Z" />
<path fill="#cfa542" opacity="0.93" d=" M 130.37 162.48 C 131.55 162.26 132.74 162.04 133.93 161.82 C 133.96 163.35 134.03 166.40 134.06 167.92 C 132.69 167.52 131.33 167.12 129.97 166.73 C 130.10 165.31 130.23 163.89 130.37 162.48 M 132.14 163.27 C 130.53 163.22 130.38 165.95 132.06 165.93 C 133.68 166.01 133.81 163.24 132.14 163.27 Z" />
<path fill="#cfa542" opacity="0.93" d=" M 171.25 162.72 C 173.45 161.45 173.23 166.44 171.22 165.94 C 170.27 165.17 170.44 163.53 171.25 162.72 Z" />
<path fill="#cfa542" opacity="0.93" d=" M 179.52 161.93 C 179.00 163.29 178.44 164.64 177.84 165.97 C 178.63 166.33 179.42 166.69 180.21 167.06 C 178.50 166.86 176.79 166.65 175.08 166.43 C 176.45 164.83 177.95 163.34 179.52 161.93 Z" />
<path fill="#cfa542" opacity="0.93" d=" M 196.03 161.86 C 197.22 162.05 198.41 162.25 199.60 162.46 C 199.78 163.96 199.96 165.46 200.14 166.97 C 198.75 166.98 197.36 167.00 195.98 167.02 C 196.00 165.29 196.01 163.57 196.03 161.86 M 197.12 163.52 C 195.80 164.46 197.36 166.74 198.68 165.67 C 199.99 164.73 198.42 162.49 197.12 163.52 Z" />
<path fill="#cfa542" opacity="0.93" d=" M 203.25 162.74 C 204.11 162.42 204.97 162.10 205.83 161.79 C 205.93 163.55 206.03 165.32 206.13 167.09 C 205.18 165.63 204.24 164.17 203.25 162.74 Z" />
<path fill="#cfa542" opacity="0.93" d=" M 207.74 162.54 C 209.60 162.00 210.15 165.91 208.30 166.00 C 207.14 165.42 206.74 163.43 207.74 162.54 Z" />
<path fill="#cfa542" opacity="0.93" d=" M 212.17 161.79 C 213.02 162.10 213.89 162.42 214.75 162.74 C 213.75 164.17 212.81 165.63 211.87 167.09 C 211.97 165.32 212.06 163.55 212.17 161.79 Z" />
<path fill="#cfa542" opacity="0.93" d=" M 216.22 163.00 C 218.03 162.65 218.03 166.34 216.22 166.00 C 215.15 165.43 215.15 163.57 216.22 163.00 Z" />
<path fill="#cfa542" opacity="0.93" d=" M 227.10 161.82 C 228.26 162.04 229.42 162.26 230.59 162.48 C 230.77 164.02 230.93 165.56 231.11 167.10 C 230.22 165.68 229.33 164.26 228.44 162.85 C 228.05 164.35 227.68 165.85 227.29 167.35 L 227.10 161.82 Z" />
<path fill="#cfa542" opacity="0.93" d=" M 236.72 161.64 C 238.24 162.22 239.77 162.82 241.28 163.46 C 240.14 163.42 239.00 163.38 237.86 163.33 C 238.36 164.80 238.81 166.28 239.20 167.78 C 238.26 165.78 237.43 163.73 236.72 161.64 Z" />
<path fill="#cfa542" opacity="0.93" d=" M 244.89 161.31 C 245.72 163.28 246.53 165.28 247.31 167.28 C 245.76 166.88 244.22 166.47 242.68 166.04 C 243.70 165.84 244.74 165.65 245.77 165.45 C 245.47 164.07 245.17 162.69 244.89 161.31 Z" />
<path fill="#cfa542" opacity="0.93" d=" M 253.22 163.00 C 255.03 162.65 255.03 166.34 253.22 166.00 C 252.15 165.43 252.15 163.57 253.22 163.00 Z" />
<path fill="#cfa542" opacity="0.93" d=" M 255.43 164.18 C 256.91 163.22 258.40 162.27 259.92 161.37 C 260.39 163.19 260.84 165.02 261.27 166.86 C 259.90 166.99 258.53 167.12 257.16 167.25 C 258.16 166.09 259.15 164.92 260.11 163.72 C 258.55 163.86 256.99 164.02 255.43 164.18 Z" />
<path fill="#cfa542" opacity="0.93" d=" M 263.41 162.48 C 264.57 162.26 265.74 162.04 266.90 161.82 L 266.71 167.35 C 266.32 165.85 265.94 164.35 265.56 162.85 C 264.66 164.26 263.78 165.68 262.89 167.10 C 263.06 165.56 263.23 164.02 263.41 162.48 Z" />
<path fill="#cfa542" opacity="0.93" d=" M 283.00 162.00 C 284.33 162.00 285.66 162.00 287.00 162.00 C 287.00 163.66 287.00 165.33 287.00 167.00 C 285.66 167.00 284.33 167.00 283.00 167.00 C 282.99 165.33 282.99 163.66 283.00 162.00 M 284.18 163.32 C 282.70 164.32 284.35 166.84 285.82 165.68 C 287.30 164.68 285.64 162.15 284.18 163.32 Z" />
<path fill="#cfa542" opacity="0.93" d=" M 95.17 163.80 C 96.59 163.35 97.10 165.74 95.83 166.20 C 94.41 166.65 93.90 164.25 95.17 163.80 Z" />
<path fill="#cfa542" opacity="0.93" d=" M 141.70 163.39 C 143.77 164.43 145.89 165.39 148.05 166.24 C 146.87 166.39 144.53 166.70 143.35 166.85 C 142.80 165.69 142.25 164.54 141.70 163.39 Z" />
<path fill="#cfa542" opacity="0.93" d=" M 153.34 163.83 C 155.36 164.31 153.66 167.92 151.93 166.76 C 151.08 165.74 152.17 164.02 153.34 163.83 Z" />
<path fill="#cfa542" opacity="0.93" d=" M 163.98 162.90 C 164.65 164.01 165.32 165.12 166.00 166.24 C 166.67 165.12 167.34 164.01 168.02 162.90 C 168.00 164.26 167.98 165.62 167.96 166.99 C 166.65 166.98 165.34 166.98 164.04 166.99 C 164.02 165.62 164.00 164.26 163.98 162.90 Z" />
<path fill="#cfa542" opacity="0.93" d=" M 219.98 162.90 C 220.65 164.01 221.32 165.12 222.00 166.24 C 222.67 165.12 223.34 164.01 224.02 162.90 C 224.00 164.26 223.98 165.62 223.96 166.99 C 222.65 166.98 221.34 166.98 220.04 166.99 C 220.01 165.62 220.00 164.26 219.98 162.90 Z" />
<path fill="#cfa542" opacity="0.93" d=" M 233.17 163.80 C 234.59 163.35 235.10 165.74 233.83 166.20 C 232.41 166.65 231.90 164.25 233.17 163.80 Z" />
</g>
</svg>
